<svg xmlns="http://www.w3.org/2000/svg" xmlns:xlink="http://www.w3.org/1999/xlink" viewBox="0 0 201.05 26.31"><defs><style>.cls-1{fill:none;}.cls-2{clip-path:url(#clip-path);}.cls-3{fill:#fff;}</style><clipPath id="clip-path" transform="translate(0 0)"><rect class="cls-1" width="201.05" height="26.3"/></clipPath></defs><title>wirelesscar-white</title><g id="Lager_2" data-name="Lager 2"><g id="Lager_1-2" data-name="Lager 1"><g class="cls-2"><path class="cls-3" d="M193.62,25.25v-6c0-3.75,1.11-8.4,5.12-8.4a5.46,5.46,0,0,1,2,.36l.27-1.47a6.1,6.1,0,0,0-2.31-.43c-2.71,0-4.41,1.77-5.12,4.38V9.62h-1.54V25.25Zm-20.8-7.83a6.46,6.46,0,0,1,6.52-6.59A6.56,6.56,0,0,1,186,17.59a6.58,6.58,0,0,1-13.15-.17M186,25.25h1.54V9.62H186V13a7.48,7.48,0,0,0-6.63-3.68,8,8,0,0,0-8.06,8.13,8,8,0,0,0,8.06,8.16A7.56,7.56,0,0,0,186,21.87ZM167.76,21.4A9.74,9.74,0,0,1,161,24.08c-5.59,0-9.77-4.62-9.77-10.31S155.41,3.43,161,3.43a9.88,9.88,0,0,1,6.76,2.68l1-1.07A11.34,11.34,0,0,0,161,1.93c-6.42,0-11.27,5.28-11.27,11.84S154.58,25.58,161,25.58a11.21,11.21,0,0,0,7.8-3.11Z" transform="translate(0 0)"/><path class="cls-3" d="M141.33,9.29c-2.48,0-4.66,1.4-5,3.54-.37,3.48,2,4.46,3.85,4.89l2.28.54c2,.46,2.67,1.6,2.67,2.84,0,1.81-1.5,3-3.88,3a3.94,3.94,0,0,1-4.18-2.84H135.7c.37,2.81,2.91,4.31,5.49,4.31,3.25,0,5.49-1.8,5.49-4.48,0-1.94-1-3.61-3.85-4.32l-2.24-.53c-1.27-.3-3-1-2.71-3.21.2-1.34,1.67-2.28,3.45-2.28a3.12,3.12,0,0,1,3.31,2.44h1.5c-.3-2.57-2.3-3.91-4.81-3.91m-13.79,0c-2.48,0-4.65,1.4-5,3.54-.37,3.48,2,4.46,3.84,4.89l2.28.54c2,.46,2.68,1.6,2.68,2.84,0,1.81-1.51,3-3.89,3a4,4,0,0,1-4.18-2.84h-1.4c.36,2.81,2.91,4.31,5.48,4.31,3.25,0,5.49-1.8,5.49-4.48,0-1.94-1-3.61-3.85-4.32l-2.24-.53c-1.27-.3-3-1-2.71-3.21.2-1.34,1.67-2.28,3.45-2.28a3.12,3.12,0,0,1,3.31,2.44h1.51c-.3-2.57-2.31-3.91-4.82-3.91m-8.27,8.1c0-4.92-3.21-8.1-7.66-8.1a7.69,7.69,0,0,0-7.86,8.1c0,4.95,3.48,8.19,7.86,8.19a7.61,7.61,0,0,0,6.89-4l-1.44-.5a6.39,6.39,0,0,1-11.78-3h14a5.54,5.54,0,0,0,0-.7m-7.66-6.6c3.38,0,5.82,2.28,6.12,5.89H105.28a6.17,6.17,0,0,1,6.33-5.89M99.53.72H98V25.25h1.51ZM94.07,17.39c0-4.92-3.21-8.1-7.66-8.1a7.69,7.69,0,0,0-7.86,8.1c0,4.95,3.48,8.19,7.86,8.19a7.6,7.6,0,0,0,6.89-4l-1.43-.5a6.26,6.26,0,0,1-5.46,3,6.19,6.19,0,0,1-6.32-6H94a5.54,5.54,0,0,0,0-.7m-7.66-6.6c3.38,0,5.82,2.28,6.12,5.89H80.09a6.15,6.15,0,0,1,6.32-5.89M69.88,25.25v-6c0-3.75,1.1-8.4,5.12-8.4a5.33,5.33,0,0,1,2,.37l.27-1.48A6.14,6.14,0,0,0,75,9.29c-2.71,0-4.42,1.77-5.12,4.38V9.62H68.34V25.25Zm-6.83,0h-1.5V9.62h1.5ZM50.49,23,45.44,5.61H44L38.88,23l-7-20.82H30.32l7.83,23.06h1.57l5-17,4.95,17h1.6L59.09,2.19h-1.6Z" transform="translate(0 0)"/><path class="cls-3" d="M13.15,25.22A12.07,12.07,0,0,1,8.68,1.94h0l9,22.41h0a12,12,0,0,1-4.51.87M13.15,0a13.16,13.16,0,0,0,0,26.31,12.91,12.91,0,0,0,4.92-1A13.15,13.15,0,0,0,13.15,0" transform="translate(0 0)"/></g></g></g></svg>