<svg version="1.1" id="Layer_1"
    xmlns="http://www.w3.org/2000/svg"
    xmlns:xlink="http://www.w3.org/1999/xlink" x="0px" y="0px" width="122px" height="32px" viewBox="0 0 122 32" style="enable-background:new 0 0 122 32;" xml:space="preserve">
    <style type="text/css">
	.st0{fill:#FFFFFF;}
    </style>
    <g>
        <path class="st0" d="M13.6,7.1v24.5H9.8V7.1H0V3.5h23.4v3.6L13.6,7.1z"></path>
        <path class="st0" d="M27.9,31.5v-28h3.8v28H27.9z"></path>
        <path class="st0" d="M58.3,23.6c0,4.7-3.2,7.9-10.5,7.9h-9.5v-28h9.3c6.8,0,9.8,3.1,9.8,7.5c0,2.9-1.6,4.9-4.8,6.1
		C56.3,18,58.3,20.4,58.3,23.6L58.3,23.6z M47.9,6.9h-5.7v8.7h5.2c4,0,6.2-1.8,6.2-4.5S51.6,6.9,47.9,6.9z M47.6,19.2h-5.5V28h6.1
		c4.1,0,6.2-1.5,6.2-4.4C54.5,20.4,51.6,19.2,47.6,19.2L47.6,19.2z"></path>
        <path class="st0" d="M83.1,8.6C81,7,78.4,6.1,75.5,6.1c-0.1,0-0.1,0-0.1,0h0c-6.1,0-10.2,4.3-10.2,11.1s4.1,11.4,10.2,11.4
		c3-0.1,5.8-1.1,8-2.8l0,0l0.6,3.8c-2.5,1.4-5.4,2.3-8.6,2.3h0c-8.2,0-14-5.7-14-14.6c0-9,5.9-14.7,14-14.7c0,0,0,0,0,0
		c3.2,0,6.3,0.9,8.9,2.3l-0.1,0L83.1,8.6z"></path>
        <path class="st0" d="M107.5,4.8c-0.5-0.2-0.8-0.5-1.3-0.7c-3.7,7-10.3,15.4-19.1,20.1c0.5,1.2,1.2,2.2,2,3.1l0,0
		c7.8-5.9,14-13.4,18.2-22.2C107.3,5.1,107.5,4.8,107.5,4.8z"></path>
        <path class="st0" d="M105.8,4c-1.7-0.8-3.8-1.3-5.9-1.3c-0.1,0-0.1,0-0.2,0h0c-8.3,0-14,6.3-14,14.7c0,0.1,0,0.2,0,0.3
		c0,1.3,0.2,2.6,0.5,3.9l0-0.1C94.5,18,102,10.4,105.8,4L105.8,4z"></path>
        <path class="st0" d="M107.7,5c-3.7,9.7-9.3,17.9-16.3,24.6l0,0c2.2,1.5,4.9,2.4,7.9,2.4c0.1,0,0.3,0,0.4,0h0
		c8.3,0.1,14.1-6.3,14.1-14.7C113.8,11.8,111.5,7.4,107.7,5L107.7,5z"></path>
        <path class="st0" d="M113.8,4.1L113.8,4.1c0-2,1.6-3.6,3.6-3.7h0c0,0,0,0,0.1,0c1.9,0,3.5,1.5,3.5,3.4v0V4c0,2-1.6,3.6-3.6,3.7h0
		c0,0,0,0-0.1,0c-1.9,0-3.5-1.5-3.5-3.4v0L113.8,4.1z M120.6,4.1L120.6,4.1C120.6,4,120.6,4,120.6,4.1c0-1.8-1.4-3.2-3.1-3.2h0
		c-0.1,0-0.1,0-0.2,0c0,0,0,0,0,0c-1.8,0-3.2,1.4-3.2,3.2v0c0,1.7,1.5,3.2,3.2,3.2S120.5,5.8,120.6,4.1L120.6,4.1L120.6,4.1z
		 M116,2.1h1.6c0.8,0,1.4,0.3,1.4,1.1c0,0,0,0,0,0.1c0,0.5-0.3,0.9-0.8,1.1l0,0l1,1.4h-0.8l-0.9-1.3h-0.8v1.3H116L116,2.1L116,2.1z
		 M117.6,4c0.5,0,0.8-0.2,0.8-0.6s-0.2-0.6-0.8-0.6h-0.9V4L117.6,4z"></path>
    </g>
</svg>